#!OML:ASF F:\VICON\USERDATA\Patient Classification 1\PLAYGROUND\JustinFriday\JustinFriday.ASF
:FULLY-SPECIFIED
:DEGREES
2328
root 14.3502 27.0305 49.0916 -725.457 -169.639 12.9486
lowerback 22.3814 -1.27105 5.95083
upperback 6.35516 -1.47032 4.24368
thorax -5.48276 -1.34995 1.64896
lowerneck -5.84739 -3.48852 -7.67769
upperneck 15.0759 -5.29041 5.79618
head 5.86217 -2.79768 2.70701
rclavicle 1.10325e-014 -1.78906e-014
rhumerus 88.6113 -8.71065 -74.61
rradius 53.4619
rwrist 379.939
rhand -3.84494 -27.4063
rfingers 7.12502
rthumb 21.9029 -56.1865
lclavicle 1.10325e-014 -1.78906e-014
lhumerus 58.5027 -2.31561 60.2605
lradius 83.4132
lwrist -10.4777
lhand -42.3977 -17.0647
lfingers 7.12502
lthumb -15.2783 12.351
rfemur -19.5168 -11.7449 36.9382
rtibia 34.061
rfoot -16.7188 -14.0351
rtoes 20.2156
lfemur -56.0938 15.0216 -5.88844
ltibia 107.122
lfoot -28.6279 -1.49162
ltoes -21.6441
2329
root 14.3476 27.0652 49.1331 -725.449 -169.725 12.8714
lowerback 22.3146 -1.23211 6.03705
upperback 6.57531 -1.46982 4.2728
thorax -5.20543 -1.3648 1.62151
lowerneck -5.83338 -3.43851 -7.7638
upperneck 15.2158 -5.22016 5.72133
head 5.89903 -2.77847 2.7026
rclavicle 1.15295e-014 -4.01545e-014
rhumerus 88.9776 -8.57739 -74.6572
rradius 53.4598
rwrist 379.978
rhand -3.85922 -27.3167
rfingers 7.12502
rthumb 21.8891 -56.0985
lclavicle 1.15295e-014 -4.01545e-014
lhumerus 61.3619 -1.88224 60.9564
lradius 82.3668
lwrist -11.3979
lhand -41.9584 -17.6632
lfingers 7.12502
lthumb -14.8551 11.7843
rfemur -19.2377 -11.7674 36.8414
rtibia 33.2168
rfoot -15.9064 -13.8387
rtoes 19.8781
lfemur -57.5416 15.2727 -6.42364
ltibia 107.6
lfoot -29.3268 -1.9822
ltoes -20.7371
2330
root 14.356 27.1005 49.172 -725.276 -170.559 12.7619
lowerback 22.0312 -0.947756 5.95527
upperback 6.87143 -1.21671 4.20182
thorax -4.73286 -1.25224 1.50284
lowerneck -5.74697 -3.34306 -7.80843
upperneck 15.2298 -5.12055 5.85923
head 5.88527 -2.72768 2.76289
rclavicle -2.88238e-015 -2.18663e-014
rhumerus 89.4076 -8.31449 -75.0222
rradius 53.4637
rwrist 380.231
rhand -3.84887 -27.3511
rfingers 7.12502
rthumb 21.8991 -56.1318
lclavicle -2.88238e-015 -2.18663e-014
lhumerus 64.5012 -0.989558 59.5694
lradius 80.1055
lwrist -11.142
lhand -42.343 -17.6807
lfingers 7.12502
lthumb -15.2256 11.739
rfemur -18.9609 -11.052 36.8432
rtibia 32.3533
rfoot -15.2491 -13.6254
rtoes 20.0935
lfemur -59.0315 16.4528 -6.93365
ltibia 108.035
lfoot -30.3175 -1.72736
ltoes -21.6335
2331
root 14.3354 27.1233 49.216 -724.895 -170.304 13.0268
lowerback 21.631 -1.05932 6.51126
upperback 6.85965 -1.27991 4.40776
thorax -4.53801 -1.28434 1.41304
lowerneck -5.50913 -3.22826 -7.83935
upperneck 15.1183 -4.92456 5.54882
head 5.7895 -2.65913 2.68797
rclavicle 1.51076e-014 -2.08724e-014
rhumerus 89.5581 -8.03083 -75.0145
rradius 53.5381
rwrist 380.535
rhand -3.8316 -27.302
rfingers 7.12502
rthumb 21.9157 -56.0808
lclavicle 1.51076e-014 -2.08724e-014
lhumerus 66.646 -0.293497 58.8636
lradius 78.4236
lwrist -10.8299
lhand -42.4348 -17.3245
lfingers 7.12502
lthumb -15.314 12.0885
rfemur -19.2133 -11.2547 37.0983
rtibia 31.4811
rfoot -14.6517 -13.502
rtoes 20.5976
lfemur -61.3855 16.1263 -7.43908
ltibia 108.394
lfoot -30.8608 -2.40198
ltoes -22.7167
2332
root 14.3216 27.1595 49.2582 -724.697 -170.366 13.1661
lowerback 21.4547 -1.05973 6.8669
upperback 6.93614 -1.2538 4.52819
thorax -4.35969 -1.27998 1.32753
lowerneck -5.36761 -3.18906 -7.95605
upperneck 15.086 -4.85456 5.43642
head 5.75077 -2.64262 2.67885
rclavicle 2.54444e-014 2.62396e-014
rhumerus 89.704 -7.74191 -75.1311
rradius 53.7041
rwrist 380.687
rhand -3.85874 -27.1887
rfingers 7.12502
rthumb 21.8896 -55.9704
lclavicle 2.54444e-014 2.62396e-014
lhumerus 68.9345 0.490409 58.2805
lradius 76.4262
lwrist -10.8107
lhand -42.4395 -17.1623
lfingers 7.12502
lthumb -15.3185 12.2503
rfemur -19.2034 -11.612 37.2681
rtibia 30.6563
rfoot -13.8663 -13.105
rtoes 20.7746
lfemur -63.0974 16.0347 -7.87813
ltibia 108.216
lfoot -31.0779 -4.06659
ltoes -21.9026
2333
root 14.3236 27.2022 49.2951 -724.861 -171.239 12.7085
lowerback 21.7044 -0.733738 6.45473
upperback 7.26857 -0.988974 4.35783
thorax -4.12014 -1.1706 1.30906
lowerneck -5.22832 -3.14384 -7.97468
upperneck 14.9967 -4.79866 5.44065
head 5.6954 -2.61787 2.6897
rclavicle 5.96354e-016 9.14409e-015
rhumerus 89.9356 -7.51564 -75.3975
rradius 53.8178
rwrist 380.698
rhand -4.06622 -27.0868
rfingers 7.12502
rthumb 21.6904 -55.8918
lclavicle 5.96354e-016 9.14409e-015
lhumerus 71.2942 1.41742 57.4411
lradius 74.1999
lwrist -11.1043
lhand -42.7136 -17.2166
lfingers 7.12502
lthumb -15.5826 12.1756
rfemur -18.5258 -11.1958 36.8085
rtibia 29.9223
rfoot -13.1597 -12.8007
rtoes 20.2581
lfemur -63.5283 16.7724 -8.55921
ltibia 107.889
lfoot -31.9211 -5.02299
ltoes -21.5238
2334
root 14.3146 27.2091 49.328 -724.891 -171.68 12.424
lowerback 21.764 -0.568411 6.30643
upperback 7.48073 -0.861639 4.26962
thorax -3.91704 -1.1205 1.26215
lowerneck -5.14095 -3.0728 -7.82496
upperneck 15.0035 -4.69363 5.2037
head 5.66664 -2.57768 2.59879
rclavicle 9.93923e-015 -2.42517e-014
rhumerus 89.9966 -7.30276 -75.5569
rradius 53.9709
rwrist 380.791
rhand -4.43627 -27.0955
rfingers 7.12502
rthumb 21.335 -55.941
lclavicle 9.93923e-015 -2.42517e-014
lhumerus 73.4885 2.34874 56.406
lradius 71.7718
lwrist -11.1416
lhand -43.1141 -16.7056
lfingers 7.12502
lthumb -15.9682 12.6562
rfemur -18.1757 -11.1063 36.5111
rtibia 29.2625
rfoot -12.5808 -12.5308
rtoes 18.8186
lfemur -64.5711 16.8322 -9.20212
ltibia 107.695
lfoot -32.6706 -5.46034
ltoes -22.1858
2335
root 14.2952 27.2241 49.3647 -724.3 -171.468 12.5619
lowerback 21.095 -0.68143 6.69761
upperback 7.40513 -0.95015 4.34871
thorax -3.65845 -1.14219 1.12741
lowerneck -4.98841 -2.99257 -7.64411
upperneck 15.0588 -4.58208 4.88385
head 5.63937 -2.5425 2.47772
rclavicle 2.01766e-014 2.52457e-014
rhumerus 89.8263 -7.02064 -75.7177
rradius 54.2496
rwrist 381.063
rhand -4.67621 -27.0126
rfingers 7.12502
rthumb 21.1045 -55.884
lclavicle 2.01766e-014 2.52457e-014
lhumerus 75.4483 3.22424 55.4122
lradius 69.2745
lwrist -10.7615
lhand -42.8221 -15.5262
lfingers 7.12502
lthumb -15.687 13.8579
rfemur -18.7847 -11.4023 36.7413
rtibia 28.7033
rfoot -12.0579 -12.33
rtoes 18.1346
lfemur -66.6639 16.1747 -9.76106
ltibia 107.221
lfoot -32.8938 -5.94353
ltoes -22.4605
2336
root 14.2758 27.2553 49.3969 -724.252 -171.658 12.4011
lowerback 20.9893 -0.614777 6.72931
upperback 7.54567 -0.906632 4.33476
thorax -3.44931 -1.12608 1.07701
lowerneck -4.70843 -2.93469 -7.53724
upperneck 14.9219 -4.51284 4.74125
head 5.53875 -2.51693 2.42445
rclavicle 1.6201e-014 -1.39149e-014
rhumerus 89.7677 -6.77477 -75.9212
rradius 54.4361
rwrist 381.261
rhand -4.96636 -26.7189
rfingers 7.12502
rthumb 20.8257 -55.6212
lclavicle 1.6201e-014 -1.39149e-014
lhumerus 77.449 3.90635 54.9533
lradius 66.8834
lwrist -10.3626
lhand -41.9107 -14.6531
lfingers 7.12502
lthumb -14.8091 14.7977
rfemur -18.6716 -11.464 36.5261
rtibia 28.2302
rfoot -11.6112 -12.1048
rtoes 18.2151
lfemur -67.4777 15.7469 -10.3345
ltibia 106.348
lfoot -33.2574 -6.22654
ltoes -22.2582
2337
root 14.2602 27.2908 49.4264 -724.235 -171.992 12.1062
lowerback 20.9456 -0.503612 6.58303
upperback 7.67345 -0.827856 4.26934
thorax -3.28747 -1.09198 1.06566
lowerneck -4.39265 -2.93477 -7.63134
upperneck 14.9157 -4.57 4.89251
head 5.49109 -2.55165 2.48835
rclavicle 4.22417e-015 -4.96962e-015
rhumerus 89.7436 -6.51266 -76.0537
rradius 54.5659
rwrist 381.378
rhand -5.19463 -26.5571
rfingers 7.12502
rthumb 20.6064 -55.4833
lclavicle 4.22417e-015 -4.96962e-015
lhumerus 79.3926 4.45552 54.8275
lradius 64.4124
lwrist -10.0864
lhand -40.775 -14.2331
lfingers 7.12502
lthumb -13.7148 15.295
rfemur -18.381 -11.3691 36.1872
rtibia 27.6391
rfoot -11.0569 -11.9015
rtoes 18.3135
lfemur -68.0402 15.4453 -10.9572
ltibia 105.301
lfoot -33.6841 -6.27926
ltoes -22.2351
2338
root 14.2464 27.3282 49.4582 -724.177 -172.422 11.7033
lowerback 20.9373 -0.354497 6.29087
upperback 7.79261 -0.719588 4.17017
thorax -3.15502 -1.04339 1.09498
lowerneck -4.12333 -2.96416 -7.77892
upperneck 15.02 -4.677 5.07507
head 5.4911 -2.61484 2.5666
rclavicle 2.4699e-014 4.33351e-014
rhumerus 89.7226 -6.22442 -76.1294
rradius 54.7457
rwrist 381.537
rhand -5.25959 -26.5606
rfingers 7.12502
rthumb 20.544 -55.4936
lclavicle 2.4699e-014 4.33351e-014
lhumerus 81.1536 5.14153 54.5949
lradius 61.8899
lwrist -9.82717
lhand -39.4554 -13.5978
lfingers 7.12502
lthumb -12.4427 16.0118
rfemur -18.0701 -11.2336 35.7638
rtibia 26.9632
rfoot -10.4326 -11.6536
rtoes 19.1669
lfemur -68.5271 15.0766 -11.6159
ltibia 104.138
lfoot -33.9791 -6.15772
ltoes -22.547
2339
root 14.2285 27.3615 49.487 -724.137 -172.814 11.3731
lowerback 20.8977 -0.212668 6.09234
upperback 7.97982 -0.629469 4.12405
thorax -2.93101 -1.01054 1.13109
lowerneck -4.07512 -2.97452 -7.7688
upperneck 14.9646 -4.67014 4.92653
head 5.46225 -2.61974 2.51938
rclavicle 2.45499e-014 1.66979e-014
rhumerus 89.7674 -5.98104 -76.1095
rradius 54.9073
rwrist 381.637
rhand -5.47453 -26.5487
rfingers 7.12502
rthumb 20.3374 -55.5038
lclavicle 2.45499e-014 1.66979e-014
lhumerus 82.8891 5.80356 54.7737
lradius 59.5941
lwrist -10.1762
lhand -37.9153 -12.495
lfingers 7.12502
lthumb -10.9575 17.199
rfemur -17.744 -11.0385 35.3807
rtibia 26.2639
rfoot -9.86296 -11.4967
rtoes 20.0757
lfemur -68.8938 14.6067 -12.1521
ltibia 102.901
lfoot -34.0335 -6.40595
ltoes -22.512
2340
root 14.207 27.3866 49.5131 -724.078 -173.052 11.2657
lowerback 20.7345 -0.145439 6.18814
upperback 8.184 -0.599629 4.14963
thorax -2.6222 -1.00674 1.089
lowerneck -4.21464 -2.91816 -7.70677
upperneck 14.882 -4.52857 4.65853
head 5.44499 -2.55579 2.43233
rclavicle 1.59028e-014 6.55989e-015
rhumerus 89.9369 -5.79266 -76.0352
rradius 54.9985
rwrist 381.707
rhand -5.59638 -26.5706
rfingers 7.12502
rthumb 20.2203 -55.5382
lclavicle 1.59028e-014 6.55989e-015
lhumerus 84.6823 6.26242 55.445
lradius 57.3614
lwrist -11.0143
lhand -36.0688 -11.2525
lfingers 7.12502
lthumb -9.17623 18.5278
rfemur -17.4236 -10.8603 35.2224
rtibia 25.4315
rfoot -9.18366 -11.4685
rtoes 20.3956
lfemur -69.3473 14.2974 -12.5647
ltibia 101.603
lfoot -33.8677 -7.2636
ltoes -21.8396
